<svg width="162" height="33" xmlns="http://www.w3.org/2000/svg">
 <defs>
  <clipPath clipPathUnits="userSpaceOnUse" id="a">
   <path id="svg_1" d="m0,841.89l595.276,0l0,-841.89l-595.276,0l0,841.89z"/>
  </clipPath>
 </defs>
 <g>
  <title>Layer 1</title>
  <g stroke="null" id="svg_52">
   <path stroke="null" id="svg_3" fill-rule="nonzero" fill="#011e41" d="m11.27885,12.48628c6.89791,-0.76412 13.6226,-1.06469 20.48382,-0.75107c-1.95511,-6.26643 -7.80244,-10.81482 -14.71234,-10.81482c-8.51047,0 -15.40908,6.89826 -15.40908,15.40873c0,0.53623 0.02822,1.06575 0.08114,1.58822c4.37271,-0.77541 8.76694,-1.43934 13.20597,-1.97169c-1.46968,-1.41183 -2.19676,-2.11527 -3.64951,-3.45936"/>
   <path stroke="null" id="svg_4" fill-rule="nonzero" fill="#2c9a42" d="m32.45235,15.85886c-4.48066,-0.29175 -8.97966,-0.31821 -13.46597,-0.12488c1.64078,1.34938 2.46734,2.04119 4.12929,3.39092c-7.10252,-0.23001 -14.12214,-0.0635 -21.12482,0.4505c1.4912,6.94977 7.66344,12.16244 15.05947,12.16244c8.66745,0 15.66167,-7.15473 15.40202,-15.87898"/>
   <path stroke="null" id="svg_5" fill-rule="nonzero" fill="#011e41" d="m45.46782,14.08296c1.98298,-0.11077 2.83565,-0.77294 3.12704,-2.35657l0.05186,-0.28046c0.16298,-0.88513 0.03069,-1.33845 -0.39547,-1.6623c-0.47555,-0.34572 -1.07245,-0.47449 -2.47581,-0.47449c-0.48543,0 -1.05234,0 -1.46474,0.04269c-0.19297,0.02152 -0.32103,0.12982 -0.35278,0.30233l-2.03977,11.07271c-0.08326,0.45368 -0.23389,0.53975 -0.82762,0.53975l-1.94276,0c-0.59373,0 -0.71226,-0.08608 -0.62901,-0.53975l2.31812,-12.58331c0.11924,-0.64735 0.37042,-0.84173 1.11126,-0.90664c1.07245,-0.1076 2.5058,-0.12982 4.15187,-0.12982c2.32059,0 4.02663,0.25894 5.05146,0.99308c0.97967,0.69039 1.26648,1.76954 0.97614,3.34577l-0.07161,0.38806c-0.29422,1.59739 -1.12572,2.74145 -2.39044,3.45372c-1.29964,0.73343 -2.86034,1.03012 -4.84155,1.07351a0.48225,-0.48225 0 0 0 -0.48472,-0.55916c0.13018,-0.762 0.50095,-1.69087 1.12854,-1.7191"/>
   <path stroke="null" id="svg_6" fill-rule="nonzero" fill="#011e41" d="m65.18893,14.05721c0.26212,-1.42523 0.4438,-2.84905 -0.18662,-3.82061c-0.40146,-0.60396 -1.23967,-0.88513 -2.50827,-0.88513c-1.26789,0 -2.21017,0.28117 -2.83423,0.88513c-1.0153,0.97156 -1.33139,2.39538 -1.59386,3.82061l-0.08361,0.45297c-0.26212,1.42488 -0.47096,2.84905 0.18662,3.82061c0.40111,0.60466 1.24002,0.88513 2.50756,0.88513c1.2686,0 2.21052,-0.28046 2.83494,-0.88513c0.98814,-0.97156 1.33174,-2.39573 1.59386,-3.82061l0.08361,-0.45297zm3.35741,0.66887c-0.41346,2.24509 -1.30282,4.14446 -2.97852,5.33121c-1.24284,0.88548 -2.957,1.40336 -5.3044,1.40336c-2.50897,0 -3.90527,-0.47519 -4.84085,-1.40336c-1.15747,-1.18675 -1.37408,-3.08612 -0.96062,-5.33121l0.16298,-0.88513c0.41346,-2.24474 1.32998,-4.14411 2.9249,-5.33051c1.27671,-0.92852 2.8487,-1.40371 5.35767,-1.40371c2.3474,0 3.8707,0.51788 4.78758,1.40371c1.23791,1.1864 1.4277,3.08577 1.01424,5.33051l-0.16298,0.88513z"/>
   <path stroke="null" id="svg_7" fill-rule="nonzero" fill="#011e41" d="m84.99329,16.53972c-0.32209,1.74802 -1.0146,2.87022 -2.30224,3.7123c-1.17299,0.79869 -2.89421,1.20898 -5.26877,1.20898c-2.42854,0 -3.91797,-0.41028 -4.79604,-1.20898c-0.97826,-0.84209 -1.26824,-2.05071 -0.96203,-3.7123l1.60233,-8.69885c0.08326,-0.45297 0.23425,-0.53905 0.82797,-0.53905l1.94241,0c0.59338,0 0.71332,0.08608 0.62936,0.53905l-1.57869,8.56903c-0.17463,0.94968 -0.09455,1.68347 0.3429,2.0941c0.45226,0.47484 1.24496,0.71191 2.4049,0.71191c1.2686,0 2.04083,-0.23707 2.69453,-0.71191c0.53446,-0.41064 0.91229,-1.14442 1.08727,-2.0941l1.57834,-8.56903c0.08396,-0.45297 0.2346,-0.53905 0.82833,-0.53905l1.94241,0c0.59338,0 0.71262,0.08608 0.62936,0.53905l-1.60233,8.69885z"/>
   <path stroke="null" id="svg_8" fill-rule="nonzero" fill="#011e41" d="m101.90275,8.07865c0.27305,0.12912 0.29916,0.28011 0.07373,0.62548l-0.88689,1.29506c-0.21696,0.30198 -0.59055,0.28081 -0.88689,0.12947c-1.04141,-0.49601 -2.20346,-0.77717 -3.36411,-0.77717c-1.32257,0 -2.0366,0.21625 -2.68677,0.66922c-0.95956,0.66958 -1.37902,1.92124 -1.77237,4.05768l-0.07161,0.38876c-0.41346,2.24474 -0.34255,3.32389 0.18944,3.95043c0.4445,0.51788 1.39031,0.79834 2.8748,0.79834c1.15994,0 2.49945,-0.23742 3.56096,-0.58279c0.42827,-0.12947 0.70556,-0.02187 0.74613,0.34537l0.13265,1.03576c0.03669,0.38876 -0.02646,0.58315 -0.70944,0.77682c-1.3702,0.41028 -2.98346,0.66958 -4.54839,0.66958c-2.50932,0 -4.03792,-0.34537 -5.00418,-1.25237c-1.1042,-1.03611 -1.29188,-2.65467 -0.77082,-5.48185l0.15946,-0.86361c0.55598,-3.02121 1.41324,-4.59743 3.40468,-5.74149c1.23332,-0.69039 2.83106,-1.0146 4.90858,-1.0146c1.72686,0 3.44419,0.34537 4.65105,0.97191"/>
   <path stroke="null" id="svg_9" fill-rule="nonzero" fill="#011e41" d="m115.48971,7.84087c0.08326,-0.45297 0.2346,-0.53905 0.82833,-0.53905l1.94241,0c0.59338,0 0.71297,0.08608 0.62936,0.53905l-2.37386,12.886c-0.08326,0.45332 -0.2346,0.53975 -0.82797,0.53975l-1.94241,0c-0.59373,0 -0.71297,-0.08643 -0.62971,-0.53975l2.37386,-12.886zm-3.40221,7.44648l-4.40869,0a0.17427,-0.17427 0 0 1 -0.17075,0.14252l-0.97579,5.29699c-0.08326,0.45332 -0.23389,0.53975 -0.82727,0.53975l-1.94311,0c-0.59373,0 -0.71226,-0.08643 -0.62865,-0.53975l2.3735,-12.886c0.08326,-0.45297 0.23389,-0.53905 0.82762,-0.53905l1.94311,0c0.59302,0 0.71191,0.08608 0.62865,0.53905l-0.92428,5.01794a0.17392,-0.17392 0 0 1 0.17075,0.20532l5.46245,0l-0.7486,1.76073a0.88689,-0.88689 0 0 0 -0.77894,0.46249"/>
   <path stroke="null" id="svg_10" fill-rule="nonzero" fill="#011e41" d="m128.70415,10.06444l-0.3235,0c-0.99378,1.75332 -2.00873,3.62517 -2.99475,5.46456a0.17321,-0.17321 0 0 1 0.15346,0.25506l3.44243,0l-0.49813,1.83798a0.57926,-0.57926 0 0 0 -0.55986,0.42827l-3.7691,0a0.17392,-0.17392 0 0 1 -0.15416,0.09349l-1.33104,2.56118c-0.24906,0.47555 -0.56163,0.56163 -1.26331,0.56163l-1.43017,0c-0.7553,0 -1.1871,0 -0.895,-0.56163c2.31812,-4.38153 5.24055,-9.25906 7.37134,-12.626c0.42051,-0.66958 0.8181,-0.77717 1.92406,-0.77717l1.32187,0c1.10667,0 1.51872,0.1076 1.69193,0.77717c0.91793,3.36693 1.96216,8.24447 2.66561,12.626c0.08573,0.56163 -0.31891,0.56163 -1.07422,0.56163l-1.43052,0c-0.70133,0 -0.98214,-0.08608 -1.05658,-0.56163c0,0 -1.46157,-8.98072 -1.79036,-10.64055"/>
   <path stroke="null" id="svg_11" fill-rule="nonzero" fill="#011e41" d="m140.12046,20.72686c-0.08326,0.45368 -0.23425,0.53975 -0.82797,0.53975l-1.94276,0c-0.59338,0 -0.71262,-0.08608 -0.62936,-0.53975l2.37386,-12.886c0.08361,-0.45297 0.2346,-0.53905 0.82797,-0.53905l1.94276,0c0.59373,0 0.71226,0.08608 0.62936,0.53905l-2.37386,12.886z"/>
   <path stroke="null" id="svg_12" fill-rule="nonzero" fill="#011e41" d="m146.81058,7.84087c0.08396,-0.45297 0.23425,-0.53905 0.82762,-0.53905l1.61961,0c0.70097,0 0.97791,0.10725 1.22591,0.51788l5.08074,8.89217l0.1076,0l1.63443,-8.87101c0.08361,-0.45297 0.23425,-0.53905 0.82797,-0.53905l1.69969,0c0.59373,0 0.71297,0.08608 0.62936,0.53905l-2.3735,12.886c-0.08361,0.45332 -0.2346,0.53975 -0.82833,0.53975l-1.61855,0c-0.70168,0 -0.97861,-0.1083 -1.22697,-0.51823l-5.11602,-8.6985l-0.10795,0l-1.59845,8.67698c-0.08361,0.45332 -0.23389,0.53975 -0.82762,0.53975l-1.70005,0c-0.59373,0 -0.71262,-0.08643 -0.62936,-0.53975l2.37386,-12.886z"/>
   <path stroke="null" id="svg_13" fill-rule="nonzero" fill="#2c9a42" d="m37.53168,28.96534c-0.02434,0.11536 -0.06668,0.15134 -0.19403,0.15134l-0.43604,0c-0.13335,0 -0.15734,-0.04198 -0.13335,-0.15134l0.70274,-3.61635c0.02434,-0.12735 0.06068,-0.15134 0.19403,-0.15134l0.43604,0c0.13335,0 0.15769,0.02999 0.13335,0.15134l-0.70274,3.61635z"/>
   <path stroke="null" id="svg_14" fill-rule="nonzero" fill="#2c9a42" d="m41.16708,28.96534c-0.02434,0.121 -0.06668,0.15134 -0.20003,0.15134l-0.38136,0c-0.13335,0 -0.16369,-0.03034 -0.13935,-0.15134l0.32068,-1.68382c0.01834,-0.10301 0.03034,-0.18803 0.03034,-0.29104c0,-0.20567 -0.10866,-0.30868 -0.41169,-0.30868c-0.20003,0 -0.34537,0.03598 -0.43639,0.10866c-0.09066,0.07303 -0.15734,0.16969 -0.20602,0.4184l-0.33902,1.75649c-0.02399,0.121 -0.06668,0.15134 -0.19967,0.15134l-0.38206,0c-0.133,0 -0.16334,-0.03034 -0.13935,-0.15134l0.52141,-2.6776c0.01799,-0.10266 0.07267,-0.139 0.17568,-0.139l0.22366,0c0.10301,0 0.13335,0.01799 0.13335,0.10901l0,0.14535l0.01834,0c0.20602,-0.17568 0.46638,-0.30904 0.92076,-0.30904c0.52705,0 0.86607,0.22402 0.86607,0.74507c0,0.14535 -0.02399,0.30904 -0.05433,0.47273l-0.32103,1.65348z"/>
   <path stroke="null" id="svg_15" fill-rule="nonzero" fill="#2c9a42" d="m44.20875,27.32985c0.02434,-0.13335 0.03634,-0.22437 0.03634,-0.32738c0,-0.19967 -0.10301,-0.33302 -0.44203,-0.33302c-0.19403,0 -0.33338,0.04833 -0.42439,0.13935c-0.10901,0.10901 -0.19967,0.29669 -0.27235,0.6604c-0.08467,0.42404 -0.121,0.65405 -0.121,0.81774c0,0.18768 0.10866,0.29669 0.41769,0.29669c0.24836,0 0.37571,-0.03634 0.47872,-0.127c0.10266,-0.09102 0.15134,-0.21837 0.19403,-0.44838l0.133,-0.6784zm0.58138,0.70874c-0.08467,0.43604 -0.18168,0.69639 -0.3937,0.86607c-0.21167,0.16969 -0.53305,0.2667 -1.10843,0.2667c-0.70274,0 -1.02976,-0.2727 -1.02976,-0.79376c0,-0.23001 0.04833,-0.56939 0.15734,-1.08409c0.18803,-0.89677 0.57538,-1.19945 1.30846,-1.19945c0.28505,0 0.53905,0.07267 0.6724,0.18768l0.01834,0l0.21802,-1.11443c0.02434,-0.12136 0.06668,-0.1517 0.20003,-0.1517l0.38171,0c0.13335,0 0.16334,0.03034 0.13935,0.1517l-0.56374,2.87128z"/>
   <path stroke="null" id="svg_16" fill-rule="nonzero" fill="#2c9a42" d="m48.26254,28.11725c-0.09701,0.49671 -0.22402,0.72073 -0.49072,0.87242c-0.23636,0.133 -0.54505,0.18168 -0.92076,0.18168c-0.72708,0 -1.04811,-0.21802 -1.04811,-0.64206c0,-0.19403 0.03069,-0.37571 0.06068,-0.5334l0.33338,-1.69581c0.02399,-0.12136 0.06033,-0.1517 0.19368,-0.1517l0.38171,0c0.133,0 0.16969,0.03034 0.14535,0.1517l-0.33302,1.68982c-0.01834,0.10301 -0.04233,0.21202 -0.04233,0.33338c0,0.14535 0.10301,0.24236 0.37536,0.24236c0.20602,0 0.34537,-0.02434 0.43604,-0.08502c0.08502,-0.06068 0.13935,-0.13335 0.20003,-0.43004l0.34537,-1.75049c0.02434,-0.12136 0.06068,-0.1517 0.19403,-0.1517l0.38136,0c0.13335,0 0.16969,0.03034 0.14535,0.1517l-0.35737,1.81717z"/>
   <path stroke="null" id="svg_17" fill-rule="nonzero" fill="#2c9a42" d="m49.13567,29.00168c-0.09066,-0.02999 -0.09666,-0.07867 -0.06668,-0.17568l0.09102,-0.31503c0.03034,-0.09066 0.09102,-0.09066 0.15734,-0.06668a2.20311,-2.20311 0 0 1 0.72708,0.13935c0.2667,0 0.45403,-0.04833 0.50906,-0.18768c0.02999,-0.07267 0.04798,-0.16969 0.04798,-0.23037c0,-0.121 -0.06632,-0.18133 -0.254,-0.23601l-0.45473,-0.13335c-0.36936,-0.10901 -0.52705,-0.32703 -0.52705,-0.56339c0,-0.15734 0.02469,-0.32703 0.07267,-0.48437c0.13935,-0.46073 0.45438,-0.65441 1.14512,-0.65441c0.2787,0 0.58138,0.05468 0.78141,0.11501c0.09701,0.03034 0.10301,0.06668 0.07867,0.15769l-0.09666,0.34537c-0.02434,0.07832 -0.06668,0.09066 -0.1517,0.06632a2.30895,-2.30895 0 0 1 -0.62372,-0.09666c-0.32103,0 -0.43004,0.06033 -0.48472,0.21167a0.66781,-0.66781 0 0 1 -0.03034,0.15769c0,0.09701 0.06068,0.15734 0.23037,0.20602l0.41205,0.10301c0.31468,0.08467 0.60537,0.22402 0.60537,0.59338a2.14137,-2.14137 0 0 0 -0.07267,0.51506c-0.14535,0.52106 -0.49072,0.70274 -1.13877,0.70274a2.97041,-2.97041 0 0 0 -0.95709,-0.16969"/>
   <path stroke="null" id="svg_18" fill-rule="nonzero" fill="#2c9a42" d="m53.37115,26.14839l0.59973,0c0.10301,0 0.121,0.03634 0.09701,0.15734l-0.06068,0.29704c-0.01834,0.10301 -0.05468,0.15134 -0.15769,0.15134l-0.59973,0l-0.254,1.3328a1.22591,-1.22591 0 0 1 -0.03634,0.2727c0,0.11501 0.05433,0.16334 0.30868,0.16334l0.2787,0c0.127,0 0.14535,0.03034 0.121,0.1457l-0.06033,0.29634c-0.02434,0.12136 -0.05468,0.1517 -0.17568,0.1517l-0.42404,0c-0.5514,0 -0.79975,-0.15769 -0.79975,-0.52106c0,-0.14535 0.01799,-0.2787 0.06068,-0.48472l0.26035,-1.35679l-0.36336,0c-0.09102,0 -0.11536,-0.02434 -0.09701,-0.11501l0.05433,-0.2667c0.01834,-0.09701 0.04269,-0.11501 0.12136,-0.12735l0.3997,-0.06668l0.12136,-0.63571c0.02434,-0.12136 0.06668,-0.15134 0.19967,-0.15134l0.38171,0c0.13335,0 0.16369,0.02999 0.13935,0.15134l-0.11501,0.60572z"/>
   <path stroke="null" id="svg_19" fill-rule="nonzero" fill="#2c9a42" d="m55.49206,26.54244l0.01199,0c0.20602,-0.29704 0.44838,-0.3937 0.8181,-0.3937l0.15099,0c0.12735,0 0.16369,0.02399 0.13935,0.14535l-0.06668,0.35737c-0.01199,0.07867 -0.05433,0.10301 -0.15734,0.10301l-0.14535,0c-0.26635,0 -0.42404,0.06668 -0.52106,0.15734c-0.11501,0.10901 -0.18168,0.23037 -0.24236,0.5454l-0.29069,1.50813c-0.02434,0.121 -0.06632,0.15134 -0.20003,0.15134l-0.38136,0c-0.13335,0 -0.16369,-0.03034 -0.13935,-0.15134l0.5207,-2.70159c0.01834,-0.09102 0.06068,-0.11501 0.16369,-0.11501l0.21802,0c0.10301,0 0.13935,0.01834 0.13335,0.10901l-0.01199,0.28469z"/>
   <path stroke="null" id="svg_20" fill-rule="nonzero" fill="#2c9a42" d="m58.31536,25.41567c-0.05468,0.2727 -0.21802,0.42404 -0.49671,0.42404l-0.03034,0c-0.30904,0 -0.4057,-0.15134 -0.35137,-0.42404l0.006,-0.03634c0.05468,-0.29069 0.24836,-0.41804 0.50906,-0.41804l0.03034,0c0.24836,0 0.3937,0.12735 0.33902,0.41804l-0.006,0.03634zm-0.76941,3.55003c-0.02399,0.121 -0.06668,0.15134 -0.19967,0.15134l-0.38171,0c-0.13335,0 -0.16334,-0.03034 -0.13935,-0.15134l0.52106,-2.66561c0.01799,-0.121 0.06033,-0.15134 0.19368,-0.15134l0.38171,0c0.13335,0 0.16334,0.03034 0.14535,0.15134l-0.52106,2.66561z"/>
   <path stroke="null" id="svg_21" fill-rule="nonzero" fill="#2c9a42" d="m59.8302,26.79645c-0.11501,0.11536 -0.16969,0.28505 -0.23636,0.61172l0.86643,0c0.06068,0 0.07867,-0.02399 0.09066,-0.08467c0.02434,-0.10901 0.04269,-0.23001 0.04269,-0.32103c0,-0.09666 -0.01834,-0.16969 -0.04868,-0.21802c-0.05433,-0.07867 -0.16369,-0.121 -0.33937,-0.121c-0.17568,0 -0.29034,0.04833 -0.37536,0.133m1.15677,1.18146l-1.50214,0a1.5861,-1.5861 0 0 1 -0.03034,0.28469c0,0.09102 0.03634,0.18168 0.12735,0.23636c0.07867,0.04833 0.23636,0.07232 0.48437,0.07232c0.20003,0 0.50306,-0.04833 0.68475,-0.10301c0.07867,-0.02399 0.13335,-0.02399 0.14535,0.07267l0.04868,0.32138c0.01199,0.09666 -0.01834,0.127 -0.10901,0.15734c-0.2727,0.08467 -0.62407,0.15134 -0.95109,0.15134c-0.83609,0 -1.15112,-0.26035 -1.15112,-0.78105c0,-0.2667 0.07867,-0.69674 0.16334,-1.13313c0.17604,-0.88442 0.63642,-1.16312 1.38748,-1.16312c0.6724,0 1.03576,0.2727 1.03576,0.78176c0,0.26035 -0.04833,0.50236 -0.133,0.92675c-0.02469,0.127 -0.07267,0.17568 -0.20038,0.17568"/>
   <path stroke="null" id="svg_22" fill-rule="nonzero" fill="#2c9a42" d="m65.56217,27.32985c0.02434,-0.13335 0.03634,-0.22437 0.03634,-0.32738c0,-0.19967 -0.10301,-0.33302 -0.44203,-0.33302c-0.19403,0 -0.33338,0.04833 -0.42439,0.13935c-0.10901,0.10901 -0.19967,0.29669 -0.27235,0.6604c-0.08467,0.42404 -0.121,0.65405 -0.121,0.81774c0,0.18768 0.10901,0.29669 0.41769,0.29669c0.24836,0 0.37571,-0.03634 0.47872,-0.127c0.10301,-0.09102 0.15134,-0.21837 0.19403,-0.44838l0.133,-0.6784zm0.58138,0.70874c-0.08467,0.43604 -0.18168,0.69639 -0.39335,0.86607c-0.21202,0.16969 -0.5334,0.2667 -1.10879,0.2667c-0.70274,0 -1.02976,-0.2727 -1.02976,-0.79376c0,-0.23001 0.04833,-0.56939 0.15734,-1.08409c0.18803,-0.89677 0.57574,-1.19945 1.30846,-1.19945c0.28505,0 0.53905,0.07267 0.67275,0.18768l0.01799,0l0.21802,-1.11443c0.02434,-0.12136 0.06668,-0.1517 0.20003,-0.1517l0.38171,0c0.13335,0 0.16334,0.03034 0.13935,0.1517l-0.56374,2.87128z"/>
   <path stroke="null" id="svg_23" fill-rule="nonzero" fill="#2c9a42" d="m69.61596,28.11725c-0.09666,0.49671 -0.22402,0.72073 -0.49072,0.87242c-0.23636,0.133 -0.54505,0.18168 -0.92076,0.18168c-0.72708,0 -1.04811,-0.21802 -1.04811,-0.64206c0,-0.19403 0.03069,-0.37571 0.06068,-0.5334l0.33338,-1.69581c0.02399,-0.12136 0.06033,-0.1517 0.19368,-0.1517l0.38171,0c0.133,0 0.16969,0.03034 0.14535,0.1517l-0.33302,1.68982c-0.01834,0.10301 -0.04233,0.21202 -0.04233,0.33338c0,0.14535 0.10301,0.24236 0.37536,0.24236c0.20602,0 0.34537,-0.02434 0.43604,-0.08502c0.08502,-0.06068 0.13935,-0.13335 0.20003,-0.43004l0.34537,-1.75049c0.02434,-0.12136 0.06068,-0.1517 0.19403,-0.1517l0.38171,0c0.133,0 0.16933,0.03034 0.14499,0.1517l-0.35737,1.81717z"/>
   <path stroke="null" id="svg_24" fill-rule="nonzero" fill="#2c9a42" d="m73.07639,28.58363c-0.10901,0.59973 -0.22437,1.05411 -0.37536,1.47815c-0.03634,0.10266 -0.08502,0.127 -0.21837,0.127l-0.33302,0c-0.13335,0 -0.17568,-0.03634 -0.13935,-0.15134a9.49684,-9.49684 0 0 1 0.33902,-1.37514l0.33937,-1.90819l-0.33302,0c-0.09701,0 -0.12735,-0.03634 -0.10936,-0.13335l0.04868,-0.25435c0.01799,-0.09066 0.04833,-0.10901 0.14535,-0.12735l0.34537,-0.06033l0.04233,-0.23636c0.09066,-0.43004 0.19368,-0.63007 0.4057,-0.7874c0.16369,-0.12136 0.43039,-0.19403 0.78141,-0.19403c0.16969,0 0.39406,0.03034 0.5454,0.06668c0.09066,0.02434 0.10301,0.06068 0.07867,0.1457l-0.09701,0.33902c-0.03034,0.08467 -0.06668,0.10901 -0.14535,0.08467a1.45557,-1.45557 0 0 1 -0.35102,-0.04833c-0.12735,0 -0.23037,0.01834 -0.30904,0.06668c-0.09102,0.05433 -0.16969,0.15734 -0.20602,0.36936l-0.03034,0.16369l0.58138,0c0.10901,0 0.1337,0.03034 0.11536,0.13335l-0.06668,0.35137c-0.01799,0.09066 -0.05468,0.121 -0.17568,0.121l-0.55739,0l-0.32103,1.82952z"/>
   <path stroke="null" id="svg_25" fill-rule="nonzero" fill="#2c9a42" d="m77.0508,28.11725c-0.09666,0.49671 -0.22402,0.72073 -0.49072,0.87242c-0.23636,0.133 -0.54505,0.18168 -0.92076,0.18168c-0.72708,0 -1.04776,-0.21802 -1.04776,-0.64206c0,-0.19403 0.03034,-0.37571 0.06033,-0.5334l0.33338,-1.69581c0.02399,-0.12136 0.06033,-0.1517 0.19368,-0.1517l0.38171,0c0.133,0 0.16969,0.03034 0.14535,0.1517l-0.33302,1.68982c-0.01834,0.10301 -0.04233,0.21202 -0.04233,0.33338c0,0.14535 0.10301,0.24236 0.37536,0.24236c0.20602,0 0.34537,-0.02434 0.43604,-0.08502c0.08502,-0.06068 0.13935,-0.13335 0.20003,-0.43004l0.34537,-1.75049c0.02434,-0.12136 0.06068,-0.1517 0.19403,-0.1517l0.38136,0c0.13335,0 0.16969,0.03034 0.14535,0.1517l-0.35737,1.81717z"/>
   <path stroke="null" id="svg_26" fill-rule="nonzero" fill="#2c9a42" d="m79.29942,26.14839l0.59973,0c0.10301,0 0.121,0.03634 0.09701,0.15734l-0.06068,0.29704c-0.01834,0.10301 -0.05468,0.15134 -0.15769,0.15134l-0.59973,0l-0.25435,1.3328a1.24708,-1.24708 0 0 1 -0.03634,0.2727c0,0.11501 0.05468,0.16334 0.30904,0.16334l0.2787,0c0.127,0 0.14535,0.03034 0.121,0.1457l-0.06068,0.29634c-0.02399,0.12136 -0.05433,0.1517 -0.17568,0.1517l-0.42404,0c-0.55104,0 -0.7994,-0.15769 -0.7994,-0.52106c0,-0.14535 0.01799,-0.2787 0.06068,-0.48472l0.26035,-1.35679l-0.36336,0c-0.09102,0 -0.11536,-0.02434 -0.09701,-0.11501l0.05433,-0.2667c0.01834,-0.09701 0.04269,-0.11501 0.12136,-0.12735l0.3997,-0.06668l0.12136,-0.63571c0.02399,-0.12136 0.06668,-0.15134 0.19967,-0.15134l0.38171,0c0.13335,0 0.16369,0.02999 0.13935,0.15134l-0.11501,0.60572z"/>
   <path stroke="null" id="svg_27" fill-rule="nonzero" fill="#2c9a42" d="m82.95282,28.11725c-0.09701,0.49671 -0.22437,0.72073 -0.49072,0.87242c-0.23636,0.133 -0.5454,0.18168 -0.9204,0.18168c-0.72743,0 -1.04846,-0.21802 -1.04846,-0.64206c0,-0.19403 0.03069,-0.37571 0.06068,-0.5334l0.33338,-1.69581c0.02399,-0.12136 0.06033,-0.1517 0.19368,-0.1517l0.38171,0c0.13335,0 0.16969,0.03034 0.14499,0.1517l-0.33267,1.68982c-0.01834,0.10301 -0.04269,0.21202 -0.04269,0.33338c0,0.14535 0.10336,0.24236 0.37536,0.24236c0.20602,0 0.34537,-0.02434 0.43639,-0.08502c0.08502,-0.06068 0.13935,-0.13335 0.20003,-0.43004l0.34537,-1.75049c0.02434,-0.12136 0.06068,-0.1517 0.19368,-0.1517l0.38206,0c0.133,0 0.16933,0.03034 0.14535,0.1517l-0.35772,1.81717z"/>
   <path stroke="null" id="svg_28" fill-rule="nonzero" fill="#2c9a42" d="m84.81972,26.54244l0.01199,0c0.20567,-0.29704 0.44838,-0.3937 0.81774,-0.3937l0.15134,0c0.12735,0 0.16369,0.02399 0.1397,0.14535l-0.06703,0.35737c-0.01199,0.07867 -0.05433,0.10301 -0.15699,0.10301l-0.14535,0c-0.2667,0 -0.42404,0.06668 -0.52141,0.15734c-0.11501,0.10901 -0.18133,0.23037 -0.24201,0.5454l-0.29069,1.50813c-0.02469,0.121 -0.06703,0.15134 -0.20038,0.15134l-0.38136,0c-0.1337,0 -0.16369,-0.03034 -0.139,-0.15134l0.52035,-2.70159c0.0187,-0.09102 0.06068,-0.11501 0.16404,-0.11501l0.21767,0c0.10301,0 0.13935,0.01834 0.13335,0.10901l-0.01199,0.28469z"/>
   <path stroke="null" id="svg_29" fill-rule="nonzero" fill="#2c9a42" d="m89.0365,26.79645c-0.11465,0.11536 -0.16898,0.28505 -0.23601,0.61172l0.86607,0c0.06068,0 0.07902,-0.02399 0.09102,-0.08467c0.02399,-0.10901 0.04233,-0.23001 0.04233,-0.32103c0,-0.09666 -0.01834,-0.16969 -0.04833,-0.21802c-0.05468,-0.07867 -0.16369,-0.121 -0.33937,-0.121c-0.17568,0 -0.29069,0.04833 -0.37571,0.133m1.15712,1.18146l-1.50249,0a1.58363,-1.58363 0 0 1 -0.02963,0.28469c0,0.09102 0.03598,0.18168 0.127,0.23636c0.07902,0.04833 0.23601,0.07232 0.48472,0.07232c0.19967,0 0.50236,-0.04833 0.68439,-0.10301c0.07867,-0.02399 0.133,-0.02399 0.14535,0.07267l0.04833,0.32138c0.01199,0.09666 -0.01834,0.127 -0.10901,0.15734c-0.2727,0.08467 -0.62372,0.15134 -0.95145,0.15134c-0.83574,0 -1.15042,-0.26035 -1.15042,-0.78105c0,-0.2667 0.07832,-0.69674 0.16334,-1.13313c0.17568,-0.88442 0.63571,-1.16312 1.38713,-1.16312c0.6724,0 1.03611,0.2727 1.03611,0.78176c0,0.26035 -0.04868,0.50236 -0.13335,0.92675c-0.02434,0.127 -0.07267,0.17568 -0.20003,0.17568"/>
   <path stroke="null" id="svg_30" fill-rule="nonzero" fill="#2c9a42" d="m92.47858,26.14839l0.59937,0c0.10336,0 0.12136,0.03634 0.09737,0.15734l-0.06068,0.29704c-0.01834,0.10301 -0.05503,0.15134 -0.15769,0.15134l-0.59973,0l-0.25435,1.3328a1.24708,-1.24708 0 0 1 -0.03634,0.2727c0,0.11501 0.05433,0.16334 0.30868,0.16334l0.2787,0c0.127,0 0.14535,0.03034 0.12171,0.1457l-0.06103,0.29634c-0.02399,0.12136 -0.05433,0.1517 -0.17568,0.1517l-0.42404,0c-0.5514,0 -0.7994,-0.15769 -0.7994,-0.52106c0,-0.14535 0.01834,-0.2787 0.06033,-0.48472l0.26035,-1.35679l-0.36336,0c-0.09066,0 -0.11501,-0.02434 -0.09666,-0.11501l0.05433,-0.2667c0.01834,-0.09701 0.04233,-0.11501 0.12136,-0.12735l0.39935,-0.06668l0.12136,-0.63571c0.02434,-0.12136 0.06703,-0.15134 0.20038,-0.15134l0.38136,0c0.13335,0 0.16369,0.02999 0.139,0.15134l-0.11465,0.60572z"/>
   <path stroke="null" id="svg_31" fill-rule="nonzero" fill="#2c9a42" d="m96.69571,25.76668c-0.04833,0.006 -0.07267,0.03034 -0.08431,0.09102l-0.18203,0.92675l0.36336,0c0.47872,0 0.73907,-0.24236 0.73907,-0.67875c0,-0.2787 -0.14535,-0.34502 -0.50836,-0.34502c-0.13335,0 -0.24871,0 -0.32773,0.006m-0.57538,2.62927c-0.01199,0.05433 -0.00564,0.07867 0.05468,0.09066c0.07267,0.01235 0.21837,0.01799 0.32703,0.01799c0.33902,0 0.55739,-0.05433 0.68475,-0.14499c0.15099,-0.10301 0.24836,-0.29704 0.24836,-0.52106c0,-0.38171 -0.20003,-0.46673 -0.70874,-0.46673l-0.4057,0l-0.20038,1.02412zm2.19923,-2.44759c0,0.5454 -0.22437,0.92076 -0.66675,1.09644l0,0.01235c0.35772,0.07867 0.58173,0.29669 0.58173,0.70239c0,0.52741 -0.20602,0.87842 -0.52705,1.08445c-0.27834,0.18168 -0.70874,0.2727 -1.3448,0.2727c-0.38136,0 -0.72073,-0.02434 -0.93275,-0.04868c-0.14535,-0.01799 -0.18768,-0.07267 -0.1517,-0.25435l0.6604,-3.42232c0.02434,-0.12735 0.08502,-0.17568 0.21202,-0.19403c0.21802,-0.03634 0.50871,-0.05468 0.88442,-0.05468c0.64841,0 1.28447,0.16969 1.28447,0.80575"/>
   <path stroke="null" id="svg_32" fill-rule="nonzero" fill="#2c9a42" d="m101.62792,25.51232c0.02399,0.03669 0.04868,0.07867 0.04868,0.11501c0,0.03634 -0.01834,0.06668 -0.07267,0.09701l-0.14535,0.08467a0.23037,-0.23037 0 0 0 -0.10936,0.03634c-0.03634,0 -0.06668,-0.01799 -0.12136,-0.07867l-0.41169,-0.46003l-0.01799,0l-0.58808,0.49036c-0.03598,0.03034 -0.07267,0.04833 -0.10266,0.04833a0.22084,-0.22084 0 0 0 -0.121,-0.04833l-0.16969,-0.13335a0.08573,-0.08573 0 0 0 -0.03634,-0.07267c0,-0.02399 0.01799,-0.06668 0.06068,-0.10301l0.6784,-0.66005a0.20003,-0.20003 0 0 0 0.16334,-0.06668l0.34537,0c0.04868,0 0.09701,0.006 0.13935,0.06668l0.46038,0.68439zm-0.9331,2.30789c-0.10266,-0.006 -0.21802,-0.01199 -0.33867,-0.01199l-0.17004,0c-0.27834,0 -0.4057,0.07867 -0.47837,0.30304c-0.03634,0.10901 -0.06068,0.22402 -0.06068,0.30868c0,0.121 0.10301,0.17568 0.30904,0.17568l0.13935,0c0.32703,0 0.47237,-0.121 0.53305,-0.43004l0.06632,-0.34537zm-0.08467,1.04211c-0.13335,0.19368 -0.37536,0.30904 -0.76342,0.30904l-0.19368,0c-0.44203,0 -0.70274,-0.23037 -0.70274,-0.57574c0,-0.19403 0.05468,-0.45403 0.12735,-0.69639c0.15134,-0.49072 0.5514,-0.66675 1.1931,-0.66675l0.20602,0c0.10936,0 0.22437,0.01235 0.32703,0.01834l0.01834,-0.08502c0.01834,-0.09066 0.03634,-0.18733 0.03634,-0.26c0,-0.18203 -0.15734,-0.21837 -0.45438,-0.21837c-0.18768,0 -0.48472,0.04868 -0.73272,0.11536c-0.07902,0.01799 -0.12136,-0.01235 -0.13335,-0.09701l-0.03634,-0.28469c-0.01799,-0.10901 0.01799,-0.1517 0.12735,-0.18168c0.26035,-0.07902 0.65405,-0.1457 0.99943,-0.1457c0.37536,0 0.59937,0.05468 0.77541,0.19403c0.13335,0.10301 0.20003,0.24236 0.20003,0.46038c0,0.09701 -0.01235,0.20602 -0.03669,0.33937l-0.37536,1.91418c-0.01834,0.08467 -0.06033,0.11501 -0.14535,0.11501l-0.29104,0c-0.09066,0 -0.121,-0.03034 -0.127,-0.10901l-0.00635,-0.14535l-0.01199,0z"/>
   <path stroke="null" id="svg_33" fill-rule="nonzero" fill="#2c9a42" d="m103.64618,26.14839l0.59937,0c0.10336,0 0.12136,0.03634 0.09737,0.15734l-0.06068,0.29704c-0.01834,0.10301 -0.05468,0.15134 -0.15769,0.15134l-0.59973,0l-0.25435,1.3328a1.24708,-1.24708 0 0 1 -0.03634,0.2727c0,0.11501 0.05433,0.16334 0.30868,0.16334l0.2787,0c0.12735,0 0.14535,0.03034 0.12136,0.1457l-0.06033,0.29634c-0.02434,0.12136 -0.05468,0.1517 -0.17604,0.1517l-0.42404,0c-0.5514,0 -0.7994,-0.15769 -0.7994,-0.52106c0,-0.14535 0.01834,-0.2787 0.06033,-0.48472l0.26035,-1.35679l-0.36301,0c-0.09102,0 -0.11536,-0.02434 -0.09701,-0.11501l0.05433,-0.2667c0.01834,-0.09701 0.04269,-0.11501 0.12136,-0.12735l0.3997,-0.06668l0.121,-0.63571c0.02434,-0.12136 0.06703,-0.15134 0.20038,-0.15134l0.38136,0c0.13335,0 0.16369,0.02999 0.139,0.15134l-0.11465,0.60572z"/>
   <path stroke="null" id="svg_34" fill-rule="nonzero" fill="#2c9a42" d="m106.19113,25.41567c-0.05433,0.2727 -0.21802,0.42404 -0.49671,0.42404l-0.02999,0c-0.30904,0 -0.4064,-0.15134 -0.35137,-0.42404l0.006,-0.03634c0.05468,-0.29069 0.248,-0.41804 0.50871,-0.41804l0.03034,0c0.24836,0 0.3937,0.12735 0.33937,0.41804l-0.00635,0.03634zm-0.76941,3.55003c-0.02434,0.121 -0.06632,0.15134 -0.19967,0.15134l-0.38171,0c-0.133,0 -0.16369,-0.03034 -0.13935,-0.15134l0.52106,-2.66561c0.01834,-0.121 0.06033,-0.15134 0.19368,-0.15134l0.38206,0c0.133,0 0.16334,0.03034 0.14499,0.15134l-0.52106,2.66561z"/>
   <path stroke="null" id="svg_35" fill-rule="nonzero" fill="#2c9a42" d="m110.7166,28.96534c-0.02399,0.121 -0.06632,0.15134 -0.19967,0.15134l-0.38171,0c-0.13335,0 -0.16334,-0.03034 -0.1397,-0.15134l0.32773,-1.68382c0.01799,-0.10301 0.02999,-0.18803 0.02999,-0.25471c0,-0.09066 -0.01834,-0.15734 -0.05468,-0.21202c-0.06033,-0.09102 -0.16334,-0.133 -0.33902,-0.133c-0.21837,0 -0.41804,0.08467 -0.58173,0.22402a4.61083,-4.61083 0 0 0 -0.07267,0.46638l-0.30904,1.59315c-0.02399,0.121 -0.06632,0.15134 -0.19967,0.15134l-0.38171,0c-0.13335,0 -0.16334,-0.03034 -0.13935,-0.15134l0.32738,-1.68382c0.01799,-0.10301 0.02999,-0.18803 0.02999,-0.25471c0,-0.09066 -0.01799,-0.16334 -0.06068,-0.21802c-0.07867,-0.09102 -0.16334,-0.127 -0.35737,-0.127c-0.17568,0 -0.32103,0.03598 -0.41205,0.10866c-0.09066,0.07303 -0.15699,0.16969 -0.20602,0.4184l-0.34502,1.75649c-0.02434,0.121 -0.06668,0.15134 -0.20003,0.15134l-0.38171,0c-0.133,0 -0.16369,-0.03034 -0.139,-0.15134l0.5267,-2.70759c0.01834,-0.08502 0.05468,-0.10901 0.15769,-0.10901l0.23601,0c0.10336,0 0.1337,0.02399 0.1337,0.10901l0,0.14535l0.01799,0c0.22437,-0.18803 0.52106,-0.30904 0.87807,-0.30904c0.36372,0 0.63007,0.12735 0.75742,0.33937c0.28469,-0.21202 0.62407,-0.33937 0.99378,-0.33937c0.33902,0 0.56939,0.07867 0.70874,0.25435c0.10301,0.12136 0.15099,0.29069 0.15099,0.50871c0,0.11536 -0.01764,0.2607 -0.05433,0.44838l-0.32103,1.65983z"/>
   <path stroke="null" id="svg_36" fill-rule="nonzero" fill="#2c9a42" d="m112.90525,26.79645c-0.11465,0.11536 -0.16933,0.28505 -0.23636,0.61172l0.86643,0c0.06068,0 0.07902,-0.02399 0.09066,-0.08467c0.02434,-0.10901 0.04269,-0.23001 0.04269,-0.32103c0,-0.09666 -0.01834,-0.16969 -0.04833,-0.21802c-0.05468,-0.07867 -0.16369,-0.121 -0.33973,-0.121c-0.17533,0 -0.29034,0.04833 -0.37536,0.133m1.15712,1.18146l-1.50249,0a1.58469,-1.58469 0 0 1 -0.02999,0.28469c0,0.09102 0.03634,0.18168 0.12735,0.23636c0.07867,0.04833 0.23601,0.07232 0.48437,0.07232c0.20003,0 0.50271,-0.04833 0.68475,-0.10301c0.07832,-0.02399 0.133,-0.02399 0.14499,0.07267l0.04868,0.32138c0.01199,0.09666 -0.01834,0.127 -0.10901,0.15734c-0.2727,0.08467 -0.62407,0.15134 -0.95145,0.15134c-0.83574,0 -1.15042,-0.26035 -1.15042,-0.78105c0,-0.2667 0.07832,-0.69674 0.16334,-1.13313c0.17568,-0.88442 0.63571,-1.16312 1.38713,-1.16312c0.6724,0 1.03611,0.2727 1.03611,0.78176c0,0.26035 -0.04868,0.50236 -0.13335,0.92675c-0.02434,0.127 -0.07267,0.17568 -0.20003,0.17568"/>
   <path stroke="null" id="svg_37" fill-rule="nonzero" fill="#2c9a42" d="m117.41907,28.96534c-0.02434,0.121 -0.06668,0.15134 -0.20003,0.15134l-0.38136,0c-0.13335,0 -0.16369,-0.03034 -0.13935,-0.15134l0.32068,-1.68382c0.01834,-0.10301 0.03034,-0.18803 0.03034,-0.29104c0,-0.20567 -0.10901,-0.30868 -0.41205,-0.30868c-0.19967,0 -0.34467,0.03598 -0.43604,0.10866c-0.09102,0.07303 -0.15734,0.16969 -0.20567,0.4184l-0.33937,1.75649c-0.02434,0.121 -0.06668,0.15134 -0.19967,0.15134l-0.38206,0c-0.133,0 -0.16334,-0.03034 -0.13935,-0.15134l0.52141,-2.6776c0.01764,-0.10266 0.07267,-0.139 0.17533,-0.139l0.22402,0c0.10301,0 0.13335,0.01799 0.13335,0.10901l0,0.14535l0.01834,0c0.20602,-0.17568 0.46638,-0.30904 0.9204,-0.30904c0.52776,0 0.86643,0.22402 0.86643,0.74507c0,0.14535 -0.02434,0.30904 -0.05468,0.47273l-0.32068,1.65348z"/>
   <path stroke="null" id="svg_38" fill-rule="nonzero" fill="#2c9a42" d="m119.84372,26.14839l0.59937,0c0.10301,0 0.12136,0.03634 0.09737,0.15734l-0.06103,0.29704c-0.01799,0.10301 -0.05468,0.15134 -0.15734,0.15134l-0.59973,0l-0.25435,1.3328a1.22591,-1.22591 0 0 1 -0.03634,0.2727c0,0.11501 0.05433,0.16334 0.30868,0.16334l0.2787,0c0.127,0 0.14535,0.03034 0.12136,0.1457l-0.06068,0.29634c-0.02399,0.12136 -0.05433,0.1517 -0.17568,0.1517l-0.42404,0c-0.5514,0 -0.7994,-0.15769 -0.7994,-0.52106c0,-0.14535 0.01799,-0.2787 0.06033,-0.48472l0.26035,-1.35679l-0.36336,0c-0.09066,0 -0.11501,-0.02434 -0.09666,-0.11501l0.05433,-0.2667c0.01834,-0.09701 0.04233,-0.11501 0.12136,-0.12735l0.39935,-0.06668l0.12136,-0.63571c0.02434,-0.12136 0.06703,-0.15134 0.20038,-0.15134l0.38136,0c0.13335,0 0.16369,0.02999 0.139,0.15134l-0.11465,0.60572z"/>
   <path stroke="null" id="svg_39" fill-rule="nonzero" fill="#2c9a42" d="m120.9705,29.00168c-0.09066,-0.02999 -0.09666,-0.07867 -0.06632,-0.17568l0.09066,-0.31503c0.03034,-0.09066 0.09102,-0.09066 0.15769,-0.06668a2.20099,-2.20099 0 0 1 0.72673,0.13935c0.26635,0 0.45403,-0.04833 0.50906,-0.18768c0.02999,-0.07267 0.04833,-0.16969 0.04833,-0.23037c0,-0.121 -0.06668,-0.18133 -0.25435,-0.23601l-0.45473,-0.13335c-0.36901,-0.10901 -0.5267,-0.32703 -0.5267,-0.56339c0,-0.15734 0.02434,-0.32703 0.07267,-0.48437c0.13935,-0.46073 0.45403,-0.65441 1.14477,-0.65441c0.27905,0 0.58173,0.05468 0.78141,0.11501c0.09701,0.03034 0.10301,0.06668 0.07902,0.15769l-0.09701,0.34537c-0.02434,0.07832 -0.06668,0.09066 -0.1517,0.06632a2.30718,-2.30718 0 0 1 -0.62407,-0.09666c-0.32068,0 -0.42933,0.06033 -0.48437,0.21167a0.66781,-0.66781 0 0 1 -0.03034,0.15769c0,0.09701 0.06068,0.15734 0.23072,0.20602l0.41169,0.10301c0.31468,0.08467 0.60572,0.22402 0.60572,0.59338a2.15901,-2.15901 0 0 0 -0.07267,0.51506c-0.1457,0.52106 -0.49072,0.70274 -1.13913,0.70274c-0.31503,0 -0.67205,-0.06668 -0.95709,-0.16969"/>
   <path stroke="null" id="svg_40" fill-rule="nonzero" fill="#2c9a42" d="m126.99316,25.41567c-0.05433,0.2727 -0.21767,0.42404 -0.49636,0.42404l-0.03034,0c-0.30868,0 -0.40605,-0.15134 -0.35137,-0.42404l0.006,-0.03634c0.05468,-0.29069 0.24836,-0.41804 0.50906,-0.41804l0.02999,0c0.24871,0 0.39406,0.12735 0.33937,0.41804l-0.00635,0.03634zm-0.76906,3.55003c-0.02434,0.121 -0.06632,0.15134 -0.19967,0.15134l-0.38206,0c-0.133,0 -0.16334,-0.03034 -0.13935,-0.15134l0.52141,-2.66561c0.01799,-0.121 0.06068,-0.15134 0.19368,-0.15134l0.38171,0c0.133,0 0.16369,0.03034 0.14535,0.15134l-0.52106,2.66561z"/>
   <path stroke="null" id="svg_41" fill-rule="nonzero" fill="#2c9a42" d="m129.81647,28.96534c-0.02364,0.121 -0.06632,0.15134 -0.19967,0.15134l-0.38136,0c-0.13335,0 -0.16369,-0.03034 -0.13935,-0.15134l0.32068,-1.68382c0.01834,-0.10301 0.03069,-0.18803 0.03069,-0.29104c0,-0.20567 -0.10936,-0.30868 -0.41205,-0.30868c-0.19967,0 -0.34502,0.03598 -0.43639,0.10866c-0.09102,0.07303 -0.15734,0.16969 -0.20567,0.4184l-0.33937,1.75649c-0.02434,0.121 -0.06668,0.15134 -0.19967,0.15134l-0.38241,0c-0.13265,0 -0.16298,-0.03034 -0.139,-0.15134l0.52141,-2.6776c0.01799,-0.10266 0.07267,-0.139 0.17533,-0.139l0.22402,0c0.10336,0 0.13335,0.01799 0.13335,0.10901l0,0.14535l0.01834,0c0.20602,-0.17568 0.46638,-0.30904 0.9204,-0.30904c0.52741,0 0.86643,0.22402 0.86643,0.74507c0,0.14535 -0.02434,0.30904 -0.05433,0.47273l-0.32138,1.65348z"/>
   <path stroke="null" id="svg_42" fill-rule="nonzero" fill="#2c9a42" d="m132.24112,26.14839l0.59937,0c0.10336,0 0.12136,0.03634 0.09737,0.15734l-0.06068,0.29704c-0.01834,0.10301 -0.05503,0.15134 -0.15769,0.15134l-0.59973,0l-0.25435,1.3328a1.24708,-1.24708 0 0 1 -0.03634,0.2727c0,0.11501 0.05433,0.16334 0.30868,0.16334l0.2787,0c0.127,0 0.14535,0.03034 0.12171,0.1457l-0.06103,0.29634c-0.02399,0.12136 -0.05433,0.1517 -0.17568,0.1517l-0.42404,0c-0.5514,0 -0.7994,-0.15769 -0.7994,-0.52106c0,-0.14535 0.01834,-0.2787 0.06033,-0.48472l0.26035,-1.35679l-0.36336,0c-0.09066,0 -0.11501,-0.02434 -0.09666,-0.11501l0.05433,-0.2667c0.01834,-0.09701 0.04233,-0.11501 0.12136,-0.12735l0.3997,-0.06668l0.121,-0.63571c0.02434,-0.12136 0.06703,-0.15134 0.20038,-0.15134l0.38136,0c0.13335,0 0.16369,0.02999 0.139,0.15134l-0.11465,0.60572z"/>
   <path stroke="null" id="svg_43" fill-rule="nonzero" fill="#2c9a42" d="m134.50703,26.79645c-0.11465,0.11536 -0.16933,0.28505 -0.23636,0.61172l0.86643,0c0.06068,0 0.07902,-0.02399 0.09066,-0.08467c0.02434,-0.10901 0.04269,-0.23001 0.04269,-0.32103c0,-0.09666 -0.01834,-0.16969 -0.04868,-0.21802c-0.05433,-0.07867 -0.16334,-0.121 -0.33937,-0.121c-0.17533,0 -0.29034,0.04833 -0.37536,0.133m1.15712,1.18146l-1.50249,0a1.58469,-1.58469 0 0 1 -0.02999,0.28469c0,0.09102 0.03634,0.18168 0.127,0.23636c0.07902,0.04833 0.23636,0.07232 0.48472,0.07232c0.19967,0 0.50271,-0.04833 0.68439,-0.10301c0.07867,-0.02399 0.133,-0.02399 0.14535,0.07267l0.04868,0.32138c0.01164,0.09666 -0.01834,0.127 -0.10901,0.15734c-0.2727,0.08467 -0.62407,0.15134 -0.95145,0.15134c-0.83574,0 -1.15042,-0.26035 -1.15042,-0.78105c0,-0.2667 0.07832,-0.69674 0.16298,-1.13313c0.17604,-0.88442 0.63606,-1.16312 1.38748,-1.16312c0.67205,0 1.03611,0.2727 1.03611,0.78176c0,0.26035 -0.04868,0.50236 -0.13335,0.92675c-0.02469,0.127 -0.07267,0.17568 -0.20003,0.17568"/>
   <path stroke="null" id="svg_44" fill-rule="nonzero" fill="#2c9a42" d="m137.39735,28.20792c-0.01834,0.10936 -0.03034,0.17568 -0.03034,0.23636c0,0.05468 0.03034,0.07867 0.14535,0.07867l0.18168,0c0.10901,0 0.13335,0.03634 0.10901,0.1457l-0.06033,0.30269c-0.01799,0.11501 -0.06033,0.14535 -0.16334,0.14535l-0.40605,0c-0.4057,0 -0.56339,-0.1517 -0.56339,-0.40005c0,-0.133 0.01799,-0.26635 0.05433,-0.46602l0.60008,-3.08365c0.02364,-0.121 0.06668,-0.15134 0.19967,-0.15134l0.38171,0c0.133,0 0.16334,0.03034 0.13935,0.15134l-0.58773,3.04096z"/>
   <path stroke="null" id="svg_45" fill-rule="nonzero" fill="#2c9a42" d="m139.42125,28.20792c-0.01834,0.10936 -0.02999,0.17568 -0.02999,0.23636c0,0.05468 0.02999,0.07867 0.14499,0.07867l0.18203,0c0.10866,0 0.13335,0.03634 0.10866,0.1457l-0.06033,0.30269c-0.01799,0.11501 -0.06033,0.14535 -0.16298,0.14535l-0.4064,0c-0.4057,0 -0.56304,-0.1517 -0.56304,-0.40005c0,-0.133 0.01764,-0.26635 0.05433,-0.46602l0.59973,-3.08365c0.02399,-0.121 0.06668,-0.15134 0.19967,-0.15134l0.38171,0c0.13335,0 0.16334,0.03034 0.1397,0.15134l-0.58808,3.04096z"/>
   <path stroke="null" id="svg_46" fill-rule="nonzero" fill="#2c9a42" d="m142.03853,25.41567c-0.05433,0.2727 -0.21802,0.42404 -0.49671,0.42404l-0.02999,0c-0.30904,0 -0.40605,-0.15134 -0.35137,-0.42404l0.006,-0.03634c0.05468,-0.29069 0.248,-0.41804 0.50871,-0.41804l0.03034,0c0.24836,0 0.3937,0.12735 0.33937,0.41804l-0.00635,0.03634zm-0.76941,3.55003c-0.02399,0.121 -0.06632,0.15134 -0.19967,0.15134l-0.38171,0c-0.133,0 -0.16369,-0.03034 -0.13935,-0.15134l0.52106,-2.66561c0.01834,-0.121 0.06033,-0.15134 0.19368,-0.15134l0.38206,0c0.133,0 0.16334,0.03034 0.14535,0.15134l-0.52141,2.66561z"/>
   <path stroke="null" id="svg_47" fill-rule="nonzero" fill="#2c9a42" d="m143.57841,26.8028c-0.09701,0.09066 -0.19403,0.29669 -0.27235,0.6604c-0.08537,0.3997 -0.12171,0.66005 -0.12171,0.82974c0,0.18768 0.10336,0.29069 0.40005,0.29069c0.25435,0 0.40605,-0.05433 0.53305,-0.17568c0.08467,-0.08467 0.15134,-0.21802 0.19368,-0.43004l0.11501,-0.56939c0.03669,-0.18168 0.05468,-0.30304 0.05468,-0.41205c0,-0.21802 -0.13335,-0.32703 -0.46673,-0.32703c-0.19967,0 -0.33902,0.04269 -0.43568,0.13335m1.25978,2.21722c-0.18768,0.98743 -0.55739,1.22944 -1.38713,1.22944c-0.32703,0 -0.66005,-0.06033 -0.83009,-0.11501c-0.06632,-0.01799 -0.09666,-0.06668 -0.07232,-0.15134l0.09066,-0.32703c0.02434,-0.09102 0.07902,-0.09701 0.15734,-0.07303a2.30648,-2.30648 0 0 1 0.60608,0.09102c0.48437,0 0.66605,-0.14535 0.75707,-0.58138l0.04833,-0.20602l-0.01799,0c-0.18803,0.19403 -0.43004,0.28469 -0.81175,0.28469c-0.63606,0 -0.92076,-0.2607 -0.92076,-0.75742c0,-0.24836 0.05468,-0.67205 0.17533,-1.1871c0.20003,-0.86607 0.5514,-1.13278 1.33316,-1.13278c0.39935,0 0.66605,0.11501 0.78705,0.29669l0.01235,0l0.06668,-0.14535c0.03634,-0.07867 0.07267,-0.09666 0.17604,-0.09666l0.23601,0c0.10301,0 0.139,0.03634 0.12065,0.139l-0.5267,2.73228z"/>
   <path stroke="null" id="svg_48" fill-rule="nonzero" fill="#2c9a42" d="m146.94711,26.79645c-0.11465,0.11536 -0.16898,0.28505 -0.23601,0.61172l0.86607,0c0.06068,0 0.07902,-0.02399 0.09102,-0.08467c0.02434,-0.10901 0.04233,-0.23001 0.04233,-0.32103c0,-0.09666 -0.01799,-0.16969 -0.04833,-0.21802c-0.05433,-0.07867 -0.16369,-0.121 -0.33937,-0.121c-0.17568,0 -0.29069,0.04833 -0.37571,0.133m1.15747,1.18146l-1.50284,0a1.61609,-1.61609 0 0 1 -0.02963,0.28469c0,0.09102 0.03598,0.18168 0.127,0.23636c0.07902,0.04833 0.23636,0.07232 0.48472,0.07232a2.81871,-2.81871 0 0 1 0.68404,-0.10301c0.07902,-0.02399 0.13335,-0.02399 0.1457,0.07267l0.04833,0.32138c0.01199,0.09666 -0.01834,0.127 -0.10866,0.15734c-0.2727,0.08467 -0.62407,0.15134 -0.95145,0.15134c-0.83574,0 -1.15077,-0.26035 -1.15077,-0.78105c0,-0.2667 0.07867,-0.69674 0.16334,-1.13313c0.17568,-0.88442 0.63606,-1.16312 1.38748,-1.16312c0.67205,0 1.03611,0.2727 1.03611,0.78176c0,0.26035 -0.04904,0.50236 -0.13335,0.92675c-0.02469,0.127 -0.07267,0.17568 -0.20003,0.17568"/>
   <path stroke="null" id="svg_49" fill-rule="nonzero" fill="#2c9a42" d="m151.46092,28.96534c-0.02399,0.121 -0.06632,0.15134 -0.20003,0.15134l-0.38136,0c-0.13335,0 -0.16369,-0.03034 -0.13935,-0.15134l0.32068,-1.68382c0.01834,-0.10301 0.03069,-0.18803 0.03069,-0.29104c0,-0.20567 -0.10901,-0.30868 -0.41205,-0.30868c-0.19967,0 -0.34502,0.03598 -0.43639,0.10866c-0.09066,0.07303 -0.15699,0.16969 -0.20567,0.4184l-0.33937,1.75649c-0.02399,0.121 -0.06668,0.15134 -0.19967,0.15134l-0.38206,0c-0.13265,0 -0.16334,-0.03034 -0.139,-0.15134l0.52106,-2.6776c0.01799,-0.10266 0.07267,-0.139 0.17568,-0.139l0.22366,0c0.10336,0 0.13335,0.01799 0.13335,0.10901l0,0.14535l0.01834,0c0.20602,-0.17568 0.46638,-0.30904 0.92076,-0.30904c0.52741,0 0.86607,0.22402 0.86607,0.74507c0,0.14535 -0.02434,0.30904 -0.05433,0.47273l-0.32103,1.65348z"/>
   <path stroke="null" id="svg_50" fill-rule="nonzero" fill="#2c9a42" d="m153.88523,26.14839l0.59937,0c0.10336,0 0.12171,0.03634 0.09737,0.15734l-0.06068,0.29704c-0.01834,0.10301 -0.05468,0.15134 -0.15769,0.15134l-0.59973,0l-0.254,1.3328a1.2252,-1.2252 0 0 1 -0.03669,0.2727c0,0.11501 0.05433,0.16334 0.30904,0.16334l0.2787,0c0.127,0 0.14535,0.03034 0.12136,0.1457l-0.06068,0.29634c-0.02434,0.12136 -0.05433,0.1517 -0.17604,0.1517l-0.42369,0c-0.5514,0 -0.79975,-0.15769 -0.79975,-0.52106c0,-0.14535 0.01834,-0.2787 0.06033,-0.48472l0.26035,-1.35679l-0.36301,0c-0.09102,0 -0.11536,-0.02434 -0.09701,-0.11501l0.05433,-0.2667c0.01834,-0.09701 0.04269,-0.11501 0.12171,-0.12735l0.39935,-0.06668l0.121,-0.63571c0.02469,-0.12136 0.06703,-0.15134 0.20038,-0.15134l0.38171,0c0.13335,0 0.16334,0.02999 0.139,0.15134l-0.11501,0.60572z"/>
   <path stroke="null" id="svg_51" fill-rule="nonzero" fill="#2c9a42" d="m155.01272,29.00168c-0.09102,-0.02999 -0.09701,-0.07867 -0.06632,-0.17568l0.09031,-0.31503c0.03034,-0.09066 0.09102,-0.09066 0.15769,-0.06668a2.20276,-2.20276 0 0 1 0.72673,0.13935c0.2667,0 0.45438,-0.04833 0.50906,-0.18768c0.03034,-0.07267 0.04833,-0.16969 0.04833,-0.23037c0,-0.121 -0.06668,-0.18133 -0.25435,-0.23601l-0.45438,-0.13335c-0.36936,-0.10901 -0.52705,-0.32703 -0.52705,-0.56339c0,-0.15734 0.02434,-0.32703 0.07267,-0.48437c0.13935,-0.46073 0.45438,-0.65441 1.14512,-0.65441c0.27905,0 0.58138,0.05468 0.78105,0.11501c0.09737,0.03034 0.10336,0.06668 0.07902,0.15769l-0.09666,0.34537c-0.02434,0.07832 -0.06703,0.09066 -0.15134,0.06632a2.31424,-2.31424 0 0 1 -0.62442,-0.09666c-0.32103,0 -0.42969,0.06033 -0.48437,0.21167a0.65088,-0.65088 0 0 1 -0.03069,0.15769c0,0.09701 0.06068,0.15734 0.23072,0.20602l0.41169,0.10301c0.31468,0.08467 0.60572,0.22402 0.60572,0.59338a2.14137,-2.14137 0 0 0 -0.07267,0.51506c-0.1457,0.52106 -0.49072,0.70274 -1.13877,0.70274a2.97041,-2.97041 0 0 0 -0.95709,-0.16969"/>
  </g>
 </g>
</svg>